<?xml version="1.0" encoding="UTF-8"?>
<svg id="_レイヤー_2" data-name="レイヤー 2" xmlns="http://www.w3.org/2000/svg" viewBox="0 0 288.4 80.64">
  <defs>
    <style>
      .cls-1 {
        fill: #fff;
      }
    </style>
  </defs>
  <g id="_レイヤー_2-2" data-name="レイヤー 2">
    <g>
      <g>
        <path class="cls-1" d="M222.97,33.44c10.44,0,15.93,5.77,15.93,10.64,0,3.9-2.92,6.89-6.82,6.89-7.51,0-4.04-8.63-9.53-8.63-3.06,0-4.73,3.13-4.73,5.91,0,5.15,3.83,10.37,9.32,10.37,4.38,0,5.84-1.81,7.31-1.81,1.88,0,3.13,2.09,3.13,3.76,0,4.1-6.26,9.39-16,9.39-10.51,0-18.99-7.72-18.99-18.37,0-10.02,8.7-18.16,20.38-18.16Z"/>
        <path class="cls-1" d="M284.99,58.63c0,5.91,3.41,4.45,3.41,7.17,0,4.04-8.91,3.96-11.48,3.96-2.16,0-10.58,0-10.58-3.55,0-2.02,1.95-1.95,2.51-5.5.42-2.23.49-4.66.49-6.96,0-3.48-.07-10.02-5.01-10.02-4.24,0-4.1,3.62-4.1,6.75v8.07c0,5.77,2.78,4.59,2.78,7.1,0,4.04-7.93,4.1-10.58,4.1-9.95,0-12.24-2.08-12.24-4.24,0-2.78,2.71-1.53,3.9-6.05.84-3.27.84-12.45.84-16.28,0-3.13-.21-6.33-.28-9.46-.14-4.94-4.31-3.2-4.31-6.47,0-5.57,18.09-7.03,18.16-7.03,2.09,0,2.23.63,2.23,2.64l-.42,13.22c-.07,1.32-.14,3.55,1.67,3.55,2.09,0,2.99-6.19,10.78-6.19,12.8,0,11.9,12.04,11.97,13.98l.28,11.2Z"/>
      </g>
      <g>
        <path class="cls-1" d="M74.81,47.23c-2.54,0-4.43-6.96-4.43-9.16,0-4.76,14.15-4.18,14.15-15.09,0-4.18-4.12-7.78-8.24-7.78-5.17,0-8.76,4.06-10.67,4.06-2.22,0-3.8-4.29-3.8-6.5,0-6.15,14.68-12.76,27.14-12.76,8.45,0,25.77,2.9,25.77,15.2,0,9.98-7.92,12.07-7.92,14.74,0,4.18,17.74.35,17.74,20.54,0,14.74-12.35,30.17-40.23,30.17-5.28,0-23.87-1.16-23.87-9.51,0-3.71,2.64-6.27,5.91-6.27,2.96,0,6.44,2.09,13.09,2.09s14.15-3.94,14.15-11.14c0-6.73-5.7-9.75-11.19-9.75-3.91,0-6.76,1.16-7.6,1.16Z"/>
        <path class="cls-1" d="M139.26,47.23c-2.54,0-4.43-6.96-4.43-9.16,0-4.76,14.15-4.18,14.15-15.09,0-4.18-4.12-7.78-8.24-7.78-5.17,0-8.76,4.06-10.67,4.06-2.22,0-3.8-4.29-3.8-6.5,0-6.15,14.68-12.76,27.14-12.76,8.45,0,25.77,2.9,25.77,15.2,0,9.98-7.92,12.07-7.92,14.74,0,4.18,17.74.35,17.74,20.54,0,14.74-12.36,30.17-40.23,30.17-5.28,0-23.87-1.16-23.87-9.51,0-3.71,2.64-6.27,5.91-6.27,2.96,0,6.44,2.09,13.09,2.09s14.15-3.94,14.15-11.14c0-6.73-5.7-9.75-11.19-9.75-3.91,0-6.76,1.16-7.6,1.16Z"/>
        <path class="cls-1" d="M42.56,17.75c-.11,6.15-.21,10.1-.21,13.92,0,5.11.11,14.97.95,19.84,1.9,10.33,13.83,2.2,13.83,10.44,0,4.06-3.27,5.11-6.34,5.92-5.49,1.28-15.63,2.09-21.33,2.09-3.7,0-29.46-.58-29.46-8.59,0-2.79,2.32-4.64,4.75-4.64,1.8,0,3.7.69,5.49.69,4.01,0,5.81-3.02,5.81-16.36v-15.78c0-5.22-.42-7.31-5.6-7.31-1.37,0-2.64.23-3.91.23-2.22,0-4.22-1.28-4.22-3.83C2.32,6.38,22.66.34,38.29.34c5.77,0,4.62,11.14,4.27,17.41Z"/>
      </g>
    </g>
  </g>
</svg>