<svg xmlns="http://www.w3.org/2000/svg" xmlns:xlink="http://www.w3.org/1999/xlink" width="273.364" height="136.457" viewBox="0 0 273.364 136.457">
  <defs>
    <clipPath id="clip-path">
      <rect id="長方形_1008" data-name="長方形 1008" width="273.364" height="136.457" fill="none"/>
    </clipPath>
  </defs>
  <g id="グループ_2172" data-name="グループ 2172" clip-path="url(#clip-path)">
    <path id="パス_469" data-name="パス 469" d="M4.115,88.521a109.034,109.034,0,0,0,31.866-13.3c-3.636.475-4.211-.384-4.306-2.012-.191-6.03-1.052-8.421-3.348-10.91-5.646,4.022-12.155,7.849-25.266,12.539l-.1-.191c4.115-2.968,17.608-12.634,25.648-28.52H12.248a14.915,14.915,0,0,1,1.34,6.125c0,4.211-2.2,9.38-7.942,9.38A5.289,5.289,0,0,1,0,56.364c0-1.147.479-1.915,2.01-3.348A22.522,22.522,0,0,0,9.091,40.192h.191a36.442,36.442,0,0,1,2.489,4.785H70.434l3.155-3.636c.958-1.054,1.438-1.626,1.917-1.626,1.052,0,12.63,9.664,12.63,11.29,0,.958-.956,1.628-2.487,1.628-1.342,0-2.3-.191-3.445-.286-2.2.861-3.064,1.149-11.1,4.113,2.68,2.3,3.061,2.584,3.061,3.159,0,1.531-5.167,1.531-6.6,1.531C62.2,67.656,46.317,87.179,4.115,88.807ZM49.667,10.429V0C53.973.286,54.738.382,62.2,1.245c1.912.191,2.2.286,2.2.859,0,.863-1.915,1.247-2.966,1.533v6.793h8.421l5.358-7.463c.288-.479.861-1.147,1.242-1.147,1.054,0,10.431,8.133,10.431,9.089,0,.67-.572.67-1.147.67H61.438v5.455c0,1.531-.288,1.817-1.724,1.915l-8.135.477c-1.433.1-1.912,0-1.912-1.722V11.578H36.174v5.071c0,1.724-.1,2.2-1.915,2.3l-7.656.477c-2.01.1-2.105-.477-2.105-1.912V11.578H1.149L.67,10.429H24.5V.286C30.719.67,31.484.67,37.321,1.34c1.149.1,1.915.286,1.915.956,0,.861-2.105,1.34-3.061,1.531v6.6Zm16.747,10.72,3.252-3.924c.956-1.149,1.435-1.722,2.01-1.722.861,0,1.435.477,7.079,4.881,3.447,2.68,3.829,2.966,3.829,3.922,0,1.245-1.242,1.724-4.018,2.775V37.416c0,1.628-.1,2.01-2.01,2.108L69,40c-1.912.1-1.912-.382-1.912-2.775H20.767c0,3.252,0,3.541-2.105,3.731l-6.6.575c-2.3.191-2.391-.479-2.391-2.3V18.659c4.592.67,10.813,2.2,11.962,2.489ZM20.767,36.076H28.9V22.3H20.767ZM35.981,55.983a54.845,54.845,0,0,1-5.167,4.4c6.986.67,13.3,4.306,13.4,8.9,5.934-5.167,9.38-8.71,12.25-13.3Zm24.5-5.167a2.99,2.99,0,0,1,1.628-1.149c1.052,0,5.551,3.829,6.984,5.071.575-1.817,1.626-5.455,2.3-8.614H45.072a60.386,60.386,0,0,1-7.942,8.805H56.462ZM39.617,36.076h8.517V22.3H39.617Zm18.948,0h8.517V22.3H58.565Z" transform="translate(0 0)" fill="#781bf5"/>
    <path id="パス_470" data-name="パス 470" d="M74.614,53.461c1.227,8.508,5.442,18.087,10.884,23.91,2.145,2.3,9.273,9.351,23.682,12.492v.231a9,9,0,0,0-6.744,5.826c-1.151,3.447-1.3,3.907-2.531,3.907-1.915,0-9.2-3.678-14.635-9.5C76.53,80.9,74.079,67.716,74.079,54.841c-1,10.345-3.3,18.24-7.434,24.909-5.979,9.5-16.785,17.7-33.108,21.075l-.078-.155c27.819-12.8,29.967-39.7,30.579-47.209H35.606l-.384-.843H64.116q.23-2.988.228-5.977v-17.4c2.454.228,6.822.765,8.738.994,1.839.233,3.447.384,3.447,1,0,.384-.612.615-1.992,1V45.414c0,2.07-.075,5.289-.231,7.2H91.7l4.752-6.669c.612-.843.69-.918,1-.918s8.736,7.128,8.736,7.971c0,.459-.537.459-.921.459Z" transform="translate(40.768 35.633)" fill="#781bf5"/>
    <path id="パス_471" data-name="パス 471" d="M109.569,51.056c2.99,1.151,4.137,1.611,6.975,1.611.841,0,4.75-.155,5.595-.155,1.378,0,3.831.075,3.831,2.682a6.6,6.6,0,0,1-3.066,5.06c-1.611,1.072-3.678,1.684-10.959,3.523,1.458,2.913,2.607,5.213,4.14,7.9,2.682,4.9,2.988,5.44,2.988,6.82,0,3.833-1.3,8.049-5.211,8.049-2.607,0-3.372-1.074-5.06-3.372a21.838,21.838,0,0,0-16.321-7.9c-7.589,0-10.884,4.293-10.884,8.508,0,5.289,3.831,5.517,8.43,5.517,2.454,0,13.257-.765,15.48-.765,3.831,0,5.826,2.223,5.826,5.442,0,2.143,0,4.674-13.1,4.674-22.38,0-24.066-7.356-24.066-12.876,0-10.267,10.269-11.955,16.017-11.955,4.9,0,10.192,1.455,13.641,2.451a15.239,15.239,0,0,0,3.678.615c1.686,0,2.529-.459,2.529-1.761,0-1.919-2.3-7.9-3.141-10.271-4.6.921-11.5,2.07-16.017,2.07-2.529,0-9.426,0-9.426-6.513,0-4.446,3.525-6.744,4.674-7.436a6.76,6.76,0,0,0-1.458,3.6c0,2.682,2.531,2.913,4.6,2.913a96.612,96.612,0,0,0,14.635-2.07c-.151-.384-1.761-4.137-3.678-8.046A51.855,51.855,0,0,1,87.881,50.98c-11.19,0-12.033-6.132-12.339-9.581,2.833,2.837,4.444,3.45,7.279,3.45,4.676,0,9.965-1.917,13.337-3.219-2.147-3.678-4.062-6.9-10.041-7.74.765-3.678,3.987-4.368,7.281-4.368,3.6,0,4.6.843,5.673,3.909a63.889,63.889,0,0,0,2.223,6.052,8.622,8.622,0,0,1,3.982-1c3.45,0,6.669,1.688,6.669,4.293s-3.447,3.984-7.128,5.287c1.994,4.676,2.223,5.213,3.68,8.355,2.682-.69,4.062-1.072,4.062-2.3,0-.615-2.223-2.3-3.066-2.835Z" transform="translate(90.363 35.97)" fill="#781bf5"/>
    <path id="パス_472" data-name="パス 472" d="M136.154,29.244c4.83,0,8.2,5.517,8.2,9.5,0,2.99-1.378,3.909-5.593,6.591-7.359,4.674-15.558,9.81-23.223,14.943-.918.615-3.447,2.3-3.447,3.911,0,1.531.612,1.761,6.283,4.29,14.87,6.513,21.614,12.645,25.062,21.075a11.9,11.9,0,0,1,.918,4.523c0,3.064-2.527,6.589-5.748,6.589-2.068,0-2.3-.537-4.521-5.593-6.285-14.1-15.172-19.085-23.067-23.451-3.372-1.841-5.136-3.909-5.136-6.44,0-4.368,2.762-6.436,7.9-10.345,12.033-9.2,20.922-16.323,20.922-20.463,0-1.917-1.761-2.988-3.833-3.144a8.972,8.972,0,0,1,5.289-1.99" transform="translate(129.011 35.633)" fill="#781bf5"/>
  </g>
</svg>
