<svg xmlns="http://www.w3.org/2000/svg" xmlns:xlink="http://www.w3.org/1999/xlink" width="400.598" height="295.557" viewBox="0 0 400.598 295.557">
  <defs>
    <linearGradient id="linear-gradient" x1="-0.096" y1="-0.399" x2="0.715" y2="0.751" gradientUnits="objectBoundingBox">
      <stop offset="0" stop-color="#d4b5ff"/>
      <stop offset="1" stop-color="#781bf5"/>
    </linearGradient>
    <clipPath id="clip-path">
      <rect id="長方形_608" data-name="長方形 608" width="105.443" height="103.103" fill="none"/>
    </clipPath>
  </defs>
  <g id="グループ_822" data-name="グループ 822" transform="translate(-204 -2865.443)">
    <g id="パス_252" data-name="パス 252" transform="translate(197.579 2860.943)" fill="none" stroke-miterlimit="10">
      <path d="M106.57,201.29,6.421,102.9,106.57,4.5h200.3l100.149,98.4L306.87,201.29Z" stroke="none"/>
      <path d="M 303.1885986328125 192.2903900146484 L 394.1771850585938 102.8957672119141 L 303.1885681152344 13.49967765808105 L 110.2518463134766 13.49967765808105 L 19.26316452026367 102.8957672119141 L 110.2518081665039 192.2903900146484 L 303.1885986328125 192.2903900146484 M 306.8700256347656 201.2903900146484 L 106.5703811645508 201.2903900146484 L 6.421311855316162 102.8958206176758 L 106.5703811645508 4.499677658081055 L 306.8700256347656 4.499677658081055 L 407.0190124511719 102.8958206176758 L 306.8700256347656 201.2903900146484 Z" stroke="none" fill="#781bf5"/>
    </g>
    <text id="配信を見る" transform="translate(404 2979)" fill="#781bf5" font-size="44" font-family="KozGoPr6N-Bold, Kozuka Gothic Pr6N" font-weight="700" letter-spacing="0.04em"><tspan x="-113.52" y="0">配信を見る</tspan></text>
    <g id="グループ_816" data-name="グループ 816" transform="translate(-92 -69)">
      <circle id="楕円形_9" data-name="楕円形 9" cx="77.5" cy="77.5" r="77.5" transform="translate(526 3075)" fill="url(#linear-gradient)"/>
      <g id="グループ_817" data-name="グループ 817" transform="translate(554 3104)">
        <g id="グループ_816-2" data-name="グループ 816" transform="translate(0 0)" clip-path="url(#clip-path)">
          <path id="パス_268" data-name="パス 268" d="M73.392,102.611c-4.927,0-9.216-.69-12.077-1.944C33.86,88.644,10.785,82.973,6.108,82.112a4.933,4.933,0,0,1-3.6-2.789,8.439,8.439,0,0,1,.1-7.182,7.354,7.354,0,0,1,4.266-3.724,8.473,8.473,0,0,1,2.068-.381l.126,0c2.116,0,12.049,2.52,24.717,6.269l.041.012.037.017a1.891,1.891,0,0,0,2.415-2.669L1.742,11.846a7.4,7.4,0,0,1,12.813-7.4L41.5,51.121a1.807,1.807,0,0,0,.639.625.946.946,0,0,0,.14.069l.085.038a1.818,1.818,0,0,0,.621.163.843.843,0,0,1,.16.031.648.648,0,0,1,.073-.009,1.816,1.816,0,0,0,.862-.223,1.89,1.89,0,0,0,.693-2.583L34.484,31.405a7.4,7.4,0,0,1,6.4-11.095,7.426,7.426,0,0,1,6.417,3.7L58.684,43.726a1.826,1.826,0,0,0,.64.626.889.889,0,0,0,.141.069l.079.035a1.817,1.817,0,0,0,.626.165.924.924,0,0,1,.16.029c.022,0,.046-.007.071-.008a1.822,1.822,0,0,0,.863-.223,1.89,1.89,0,0,0,.693-2.583L53.3,26.846A7.395,7.395,0,0,1,59.7,15.754a7.429,7.429,0,0,1,6.419,3.7L76.409,37.277a1.866,1.866,0,0,0,.5.564,1.905,1.905,0,0,0,1.142.384,1.827,1.827,0,0,0,.233-.014,1.893,1.893,0,0,0,1.4-2.823l-7.56-13.094a7.4,7.4,0,0,1,6.4-11.1A7.43,7.43,0,0,1,84.9,14.838c.363.416,2.355,2.928,7.628,13.214,13.464,26.265,16.29,52.493,7.032,65.265-4.975,6.861-17.207,9.295-26.17,9.295" transform="translate(-0.129 -0.129)" fill="#fff"/>
          <path id="パス_269" data-name="パス 269" d="M8.008,1.241a6.78,6.78,0,0,1,5.88,3.388L40.836,51.3a2.461,2.461,0,0,0,.845.839,2.37,2.37,0,0,0,.3.146,2.422,2.422,0,0,0,.827.218c.071.007.134.054.206.054.04,0,.077-.029.117-.031a2.428,2.428,0,0,0,1.136-.306,2.509,2.509,0,0,0,.918-3.429L34.893,30.966a6.778,6.778,0,0,1,11.739-6.777l2.73,4.729,0,0,8.653,14.987a2.461,2.461,0,0,0,.845.839,2.345,2.345,0,0,0,.3.145,2.451,2.451,0,0,0,.831.218c.07.006.132.054.2.054.04,0,.077-.03.117-.031a2.431,2.431,0,0,0,1.136-.306,2.51,2.51,0,0,0,.919-3.43L53.71,26.406a6.777,6.777,0,0,1,11.74-6.774L75.741,37.458a2.511,2.511,0,0,0,2.175,1.258,2.439,2.439,0,0,0,.309-.02,2.515,2.515,0,0,0,1.863-3.749L72.53,21.853a6.778,6.778,0,0,1,11.739-6.777S86.053,16.9,91.849,28.2c13.315,25.976,16.2,52.044,7.081,64.618-4.565,6.3-16.037,9.039-25.667,9.039-4.734,0-9.023-.663-11.828-1.892C33.041,87.535,9.886,82.07,6.091,81.372s-4.717-5.737-3.057-9.084a6.735,6.735,0,0,1,3.909-3.412,7.926,7.926,0,0,1,1.9-.35c.03,0,.061,0,.1,0,1.978,0,11.6,2.413,24.542,6.242a2.511,2.511,0,0,0,3.206-3.545L2.151,11.406A6.776,6.776,0,0,1,8.008,1.241M8.008,0A8.02,8.02,0,0,0,1.076,12.026L35.611,71.843a1.27,1.27,0,0,1-1.623,1.792l-.076-.034-.08-.024c-9.811-2.9-22.218-6.294-24.894-6.294-.055,0-.108,0-.156,0a8.768,8.768,0,0,0-2.234.417v0a7.966,7.966,0,0,0-4.625,4.036,8.96,8.96,0,0,0-.1,7.734,5.605,5.605,0,0,0,4.041,3.122c4.66.857,27.662,6.511,55.07,18.514,2.938,1.287,7.316,2,12.326,2,9.11,0,21.561-2.5,26.673-9.552,9.392-12.956,6.586-39.443-6.981-65.912-5.109-9.966-7.158-12.686-7.675-13.295A8.02,8.02,0,0,0,74.39,11.52a8.018,8.018,0,0,0-2.935,10.953l7.56,13.094a1.275,1.275,0,0,1-.942,1.9,1.236,1.236,0,0,1-.156.01,1.281,1.281,0,0,1-.766-.257,1.253,1.253,0,0,1-.333-.379L66.525,19.012a8.024,8.024,0,0,0-10.954-2.935,8.018,8.018,0,0,0-2.936,10.95l8.654,14.99a1.271,1.271,0,0,1-.464,1.734,1.214,1.214,0,0,1-.573.141h-.014c-.046-.008-.094-.016-.146-.02a1.214,1.214,0,0,1-.416-.108l-.093-.042c-.025-.01-.048-.02-.071-.031a1.221,1.221,0,0,1-.422-.4L50.46,28.337l0,0-.021-.036-2.73-4.729a8.022,8.022,0,0,0-10.954-2.935,8.018,8.018,0,0,0-2.935,10.952L44.109,49.412a1.268,1.268,0,0,1-.464,1.734,1.221,1.221,0,0,1-.573.141h-.015a1.406,1.406,0,0,0-.142-.02,1.2,1.2,0,0,1-.417-.108l-.092-.041c-.025-.011-.05-.021-.074-.033a1.22,1.22,0,0,1-.422-.4L14.963,4.008A8.048,8.048,0,0,0,8.008,0" transform="translate(0 0)" fill="#fff"/>
        </g>
      </g>
    </g>
  </g>
</svg>
