<svg id="グループ_30" data-name="グループ 30" xmlns="http://www.w3.org/2000/svg" xmlns:xlink="http://www.w3.org/1999/xlink" width="25.03" height="25.03" viewBox="0 0 25.03 25.03">
  <defs>
    <clipPath id="clip-path">
      <rect id="長方形_298" data-name="長方形 298" width="25.03" height="25.03" fill="#fff"/>
    </clipPath>
  </defs>
  <g id="グループ_29" data-name="グループ 29" clip-path="url(#clip-path)">
    <path id="パス_249" data-name="パス 249" d="M140.458,0H132.18a1.148,1.148,0,1,0,0,2.3h5.506L128.7,11.277a1.148,1.148,0,1,0,1.624,1.624l8.981-8.981V9.426a1.148,1.148,0,1,0,2.3,0V1.148A1.148,1.148,0,0,0,140.458,0" transform="translate(-116.576)" fill="#fff"/>
    <path id="パス_250" data-name="パス 250" d="M23.03,21.666a1.148,1.148,0,0,0-1.148,1.148v4.457A3.882,3.882,0,0,1,18,31.149H6.174A3.882,3.882,0,0,1,2.3,27.271V15.441a3.882,3.882,0,0,1,3.878-3.878h4.352a1.148,1.148,0,1,0,0-2.3H6.174A6.181,6.181,0,0,0,0,15.441v11.83a6.181,6.181,0,0,0,6.174,6.174H18a6.181,6.181,0,0,0,6.174-6.174V22.815a1.148,1.148,0,0,0-1.148-1.148" transform="translate(0 -8.416)" fill="#fff"/>
  </g>
</svg>
